<svg width="861" height="670" viewBox="0 0 861 670" fill="none" xmlns="http://www.w3.org/2000/svg">
<path d="M658.899 20L639.236 50.7695L564.641 167.5H602.186C637.352 167.5 669.617 173.16 698.668 184.883C728.025 195.946 753.417 212.321 774.554 234.049C796.254 255.22 812.605 280.651 823.649 310.049C835.35 339.133 841 371.435 841 406.643V410.856C841 445.592 835.321 477.852 823.67 507.394C812.608 536.862 796.24 562.574 774.558 584.289C753.411 605.467 728.049 621.812 698.765 633.421L698.661 633.462L698.557 633.502C669.544 644.63 637.323 650 602.186 650H202.101L221.764 619.23L296.359 502.5H258.814C224.184 502.5 192.028 497.113 162.574 486.052L162.404 485.987L162.235 485.921C132.996 474.33 107.441 458.04 85.8066 436.992L85.5986 436.79L85.3975 436.582C64.3818 414.916 48.1195 389.327 36.5488 360.052L36.4824 359.883L36.4189 359.713C25.3772 330.224 20 298.03 20 263.357V259.143L20.0039 257.496C20.1689 222.955 25.5337 191.249 36.4678 162.656L36.5078 162.552L36.5488 162.448C48.1374 133.128 64.4547 107.731 85.6006 86.5537C107.287 64.8348 132.969 48.4361 162.408 37.3545C191.91 25.6868 224.127 20.0001 258.814 20H658.899ZM467.216 345.756L461.319 355H441.195L369.432 462.5H587.878C605.304 462.5 617.595 457.304 626.746 448.14C635.802 439.07 641.097 426.528 641.097 408.328C641.097 390.852 635.899 378.528 626.746 369.36C617.595 360.196 605.304 355 587.878 355H493.234V304.97L467.216 345.756ZM586.571 368.87C609.108 368.87 627.327 387.16 627.327 409.657C627.327 432.155 609.108 450.444 586.571 450.444C574.456 450.444 563.59 445.156 556.13 436.772C548.67 445.156 537.804 450.444 525.688 450.444C503.151 450.444 484.932 432.155 484.932 409.657C484.932 387.16 503.151 368.87 525.688 368.87C537.803 368.87 548.67 374.157 556.13 382.541C563.59 374.157 574.456 368.87 586.571 368.87ZM272.28 207.5C254.855 207.5 242.563 212.696 233.412 221.86C224.357 230.93 219.062 243.472 219.062 261.671C219.062 279.147 224.259 291.472 233.412 300.64C242.563 309.804 254.854 315 272.28 315H367.188V361.905L391.214 324.243L397.11 315H419.804L491.567 207.5H272.28ZM348.571 219.203C371.108 219.203 389.327 237.493 389.327 259.99C389.327 282.488 371.108 300.777 348.571 300.777C336.455 300.777 325.589 295.49 318.129 287.105C310.669 295.489 299.803 300.777 287.688 300.777C265.15 300.777 246.932 282.488 246.932 259.99C246.932 237.493 265.151 219.204 287.688 219.204C299.803 219.204 310.668 224.492 318.128 232.875C325.588 224.491 336.455 219.203 348.571 219.203Z" stroke="white" stroke-width="40"/>
</svg>
