<svg width="1289" height="176" viewBox="0 0 1289 176" fill="none" xmlns="http://www.w3.org/2000/svg">
<path d="M0.000141892 66.0752C0.000141892 56.485 1.46306 47.87 4.3889 40.2303C7.47728 32.4281 11.7848 25.7637 17.3113 20.2371C23.0005 14.548 29.7462 10.2405 37.5484 7.31464C45.3506 4.22626 53.9656 2.68207 63.3933 2.68207H168.723L141.416 45.3505H67.2944C60.9551 45.3505 55.8349 47.3011 51.9338 51.2022C48.0327 55.1033 46.0821 60.3048 46.0821 66.8067C46.0821 73.146 48.0327 78.2662 51.9338 82.1673C55.8349 86.0685 60.9551 88.019 67.2944 88.019H113.133L84.6056 130.687H63.3933C53.9656 130.687 45.3506 129.225 37.5484 126.299C29.7462 123.21 23.0005 118.903 17.3113 113.376C11.7848 107.687 7.47728 100.941 4.3889 93.1392C1.46306 85.337 0.000141892 76.722 0.000141892 67.2943V66.0752ZM226.265 109.963C226.265 119.39 224.721 128.005 221.632 135.808C218.707 143.61 214.399 150.356 208.71 156.045C203.183 161.571 196.519 165.879 188.717 168.967C181.077 171.893 172.462 173.356 162.872 173.356H57.5416L84.8494 130.687H158.727C165.066 130.687 170.186 128.737 174.088 124.836C177.989 120.935 179.939 115.733 179.939 109.231C179.939 102.892 177.989 97.7718 174.088 93.8707C170.186 89.9696 165.066 88.019 158.727 88.019H113.133L141.659 45.3505H162.872C172.462 45.3505 181.077 46.8947 188.717 49.9831C196.519 52.909 203.183 57.2164 208.71 62.9056C214.399 68.4322 218.707 75.0966 221.632 82.8988C224.721 90.5385 226.265 99.1535 226.265 108.744V109.963ZM298.599 118.984L209.361 2.68207H267.878L321.762 77.0471L375.647 2.68207H434.163L344.925 118.984V173.356H298.599V118.984ZM439 59.4921C439 50.552 440.381 42.4247 443.145 35.1101C446.07 27.7955 450.134 21.5375 455.336 16.336C460.537 11.1345 466.795 7.1521 474.11 4.38881C481.424 1.46298 489.552 5.58498e-05 498.492 5.58498e-05C508.407 5.58498e-05 517.916 2.35698 527.019 7.07083C536.284 11.6221 543.68 17.7989 549.206 25.6011L593.581 87.7752H539.941L510.439 48.764C508.976 46.976 507.107 45.5131 504.831 44.3753C502.718 43.2374 500.524 42.6685 498.248 42.6685C494.347 42.6685 491.177 43.8876 488.739 46.3258C486.463 48.6015 485.325 51.6086 485.325 55.3472V173.356H439V59.4921ZM640.882 2.68207V116.058C640.882 124.998 639.42 133.126 636.494 140.44C633.73 147.755 629.667 154.013 624.303 159.214C619.101 164.416 612.762 168.48 605.285 171.405C597.808 174.169 589.518 175.55 580.415 175.55C575.701 175.55 570.987 174.9 566.274 173.6C561.56 172.462 557.008 170.755 552.62 168.48C548.231 166.204 544.167 163.522 540.429 160.434C536.69 157.345 533.439 153.85 530.676 149.949L486.301 87.7752H539.941L569.443 126.786C570.744 128.574 572.532 130.037 574.807 131.175C577.245 132.313 579.602 132.882 581.878 132.882C585.617 132.882 588.624 131.744 590.899 129.468C593.338 127.03 594.557 123.942 594.557 120.203V2.68207H640.882ZM747.491 173.356C734.812 173.356 723.271 171.324 712.868 167.26C702.465 163.197 693.525 157.508 686.048 150.193C678.734 142.716 673.044 133.776 668.981 123.373C664.917 112.97 662.885 101.429 662.885 88.7505C662.885 75.7468 664.836 63.9621 668.737 53.3966C672.638 42.8311 678.165 33.8097 685.317 26.3326C692.631 18.8555 701.328 13.085 711.405 9.02139C721.483 4.79518 732.699 2.68207 745.053 2.68207H860.623L833.315 45.3505H750.173C737.494 45.3505 727.498 49.2517 720.183 57.0539C712.868 64.6936 709.211 74.8527 709.211 87.5314C709.211 94.0332 710.105 99.9662 711.893 105.33C713.844 110.532 716.607 115.083 720.183 118.984C723.759 122.723 728.066 125.649 733.105 127.762C738.144 129.712 743.833 130.687 750.173 130.687H848.432L821.124 173.356H747.491Z" fill="white"/>
<path d="M952.499 173.356C939.821 173.356 928.28 171.324 917.877 167.26C907.474 163.197 898.534 157.508 891.057 150.193C883.742 142.716 878.053 133.776 873.989 123.373C869.926 112.97 867.894 101.429 867.894 88.7505C867.894 75.7468 869.844 63.9621 873.746 53.3966C877.647 42.8311 883.173 33.8097 890.325 26.3326C897.64 18.8555 906.336 13.085 916.414 9.02139C926.492 4.79518 937.708 2.68207 950.061 2.68207H1072.95L1045.64 45.3505H955.181C942.503 45.3505 932.506 49.2517 925.192 57.0539C917.877 64.6936 914.22 74.8527 914.22 87.5314C914.22 94.0332 915.114 99.9662 916.902 105.33C918.852 110.532 921.616 115.083 925.192 118.984C928.768 122.723 933.075 125.649 938.114 127.762C943.153 129.712 948.842 130.687 955.181 130.687H1065.63L1038.32 173.356H952.499ZM924.948 109.475L952.256 66.8067H1056.37L1029.06 109.475H924.948ZM1092.6 2.68207H1203.78C1216.46 2.68207 1228 4.7139 1238.4 8.77757C1248.81 12.8412 1257.66 18.6116 1264.98 26.0888C1272.46 33.4034 1278.23 42.2622 1282.29 52.6651C1286.35 63.0681 1288.39 74.6089 1288.39 87.2876C1288.39 100.129 1286.44 111.913 1282.53 122.641C1278.63 133.207 1273.03 142.228 1265.71 149.705C1258.56 157.183 1249.94 163.034 1239.87 167.26C1229.79 171.324 1218.57 173.356 1206.22 173.356H1143.8L1172.33 130.687H1201.1C1213.78 130.687 1223.77 126.868 1231.09 119.228C1238.4 111.426 1242.06 101.185 1242.06 88.5067C1242.06 82.0048 1241.08 76.1531 1239.13 70.9516C1237.35 65.5876 1234.66 61.0363 1231.09 57.2977C1227.51 53.3966 1223.2 50.4708 1218.17 48.5202C1213.13 46.4071 1207.44 45.3505 1201.1 45.3505H1138.92V173.356H1092.6V2.68207Z" fill="#FF4D00"/>
</svg>
